<svg width="41" height="40" viewBox="0 0 41 40" fill="none" xmlns="http://www.w3.org/2000/svg">
<rect x="0.870117" width="39.9568" height="40" rx="8" fill="black"/>
<path d="M28.3624 16.08C28.2501 16.1644 26.2662 17.2464 26.2662 19.6522C26.2662 22.435 28.7906 23.4195 28.8662 23.4439C28.8545 23.5039 28.4651 24.7921 27.5352 26.1048C26.7059 27.2599 25.8399 28.4131 24.5225 28.4131C23.2051 28.4131 22.866 27.6724 21.3452 27.6724C19.863 27.6724 19.3361 28.4375 18.131 28.4375C16.9259 28.4375 16.0851 27.3686 15.1183 26.056C13.9985 24.5146 13.0938 22.12 13.0938 19.8473C13.0938 16.2019 15.5426 14.2686 17.9528 14.2686C19.2334 14.2686 20.3009 15.0824 21.1049 15.0824C21.8702 15.0824 23.0636 14.2198 24.5206 14.2198C25.0727 14.2198 27.0566 14.2686 28.3624 16.08ZM23.8289 12.6765C24.4314 11.9846 24.8577 11.0245 24.8577 10.0644C24.8577 9.93127 24.846 9.79626 24.8209 9.6875C23.8405 9.72313 22.6742 10.3194 21.9709 11.1089C21.4188 11.7165 20.9034 12.6765 20.9034 13.6498C20.9034 13.796 20.9286 13.9423 20.9402 13.9892C21.0022 14.0004 21.103 14.0136 21.2037 14.0136C22.0833 14.0136 23.1896 13.4435 23.8289 12.6765Z" fill="white"/>
</svg>
