<svg width="40" height="40" viewBox="0 0 40 40" fill="none" xmlns="http://www.w3.org/2000/svg">
<rect width="39.9568" height="40" rx="8" fill="#E6E6E6"/>
<path fill-rule="evenodd" clip-rule="evenodd" d="M30.7668 20.2557C30.7668 19.458 30.6953 18.691 30.5625 17.9546H19.9785V22.3063H26.0265C25.766 23.7125 24.9742 24.904 23.7841 25.7017V28.5245H27.4159C29.5409 26.566 30.7668 23.6819 30.7668 20.2557Z" fill="#4285F4"/>
<path fill-rule="evenodd" clip-rule="evenodd" d="M19.9781 31.25C23.0123 31.25 25.5561 30.2426 27.4155 28.5244L23.7836 25.7017C22.7773 26.3767 21.4901 26.7755 19.9781 26.7755C17.0511 26.7755 14.5737 24.7965 13.69 22.1375H9.93555V25.0522C11.7847 28.7289 15.5851 31.25 19.9781 31.25Z" fill="#34A853"/>
<path fill-rule="evenodd" clip-rule="evenodd" d="M13.69 22.1375C13.4652 21.4625 13.3375 20.7415 13.3375 20C13.3375 19.2585 13.4652 18.5375 13.69 17.8625V14.9478H9.93553C9.17442 16.4665 8.74023 18.1847 8.74023 20C8.74023 21.8154 9.17442 23.5336 9.93553 25.0523L13.69 22.1375Z" fill="#FBBC05"/>
<path fill-rule="evenodd" clip-rule="evenodd" d="M19.9781 13.2244C21.628 13.2244 23.1094 13.792 24.274 14.9068L27.4972 11.6801C25.551 9.86477 23.0072 8.75 19.9781 8.75C15.5851 8.75 11.7847 11.271 9.93555 14.9477L13.69 17.8625C14.5737 15.2034 17.0511 13.2244 19.9781 13.2244Z" fill="#EA4335"/>
</svg>
