<svg width="32" height="32" viewBox="0 0 32 32" fill="none" xmlns="http://www.w3.org/2000/svg">
<g clip-path="url(#clip0_631_26265)">
<rect width="32" height="32" fill="#ED8B44"/>
<g clip-path="url(#clip1_631_26265)">
<path d="M21.25 8.5H20.5V7.75C20.5 7.55109 20.421 7.36032 20.2803 7.21967C20.1397 7.07902 19.9489 7 19.75 7C19.5511 7 19.3603 7.07902 19.2197 7.21967C19.079 7.36032 19 7.55109 19 7.75V8.5H13V7.75C13 7.55109 12.921 7.36032 12.7803 7.21967C12.6397 7.07902 12.4489 7 12.25 7C12.0511 7 11.8603 7.07902 11.7197 7.21967C11.579 7.36032 11.5 7.55109 11.5 7.75V8.5H10.75C9.7558 8.50119 8.80267 8.89666 8.09966 9.59966C7.39666 10.3027 7.00119 11.2558 7 12.25L7 21.25C7.00119 22.2442 7.39666 23.1973 8.09966 23.9003C8.80267 24.6033 9.7558 24.9988 10.75 25H21.25C22.2442 24.9988 23.1973 24.6033 23.9003 23.9003C24.6033 23.1973 24.9988 22.2442 25 21.25V12.25C24.9988 11.2558 24.6033 10.3027 23.9003 9.59966C23.1973 8.89666 22.2442 8.50119 21.25 8.5ZM8.5 12.25C8.5 11.6533 8.73705 11.081 9.15901 10.659C9.58097 10.2371 10.1533 10 10.75 10H21.25C21.8467 10 22.419 10.2371 22.841 10.659C23.2629 11.081 23.5 11.6533 23.5 12.25V13H8.5V12.25ZM21.25 23.5H10.75C10.1533 23.5 9.58097 23.2629 9.15901 22.841C8.73705 22.419 8.5 21.8467 8.5 21.25V14.5H23.5V21.25C23.5 21.8467 23.2629 22.419 22.841 22.841C22.419 23.2629 21.8467 23.5 21.25 23.5Z" fill="#F3F3F3"/>
<path d="M16 19.375C16.6213 19.375 17.125 18.8713 17.125 18.25C17.125 17.6287 16.6213 17.125 16 17.125C15.3787 17.125 14.875 17.6287 14.875 18.25C14.875 18.8713 15.3787 19.375 16 19.375Z" fill="#F3F3F3"/>
<path d="M12.25 19.375C12.8713 19.375 13.375 18.8713 13.375 18.25C13.375 17.6287 12.8713 17.125 12.25 17.125C11.6287 17.125 11.125 17.6287 11.125 18.25C11.125 18.8713 11.6287 19.375 12.25 19.375Z" fill="#F3F3F3"/>
<path d="M19.75 19.375C20.3713 19.375 20.875 18.8713 20.875 18.25C20.875 17.6287 20.3713 17.125 19.75 17.125C19.1287 17.125 18.625 17.6287 18.625 18.25C18.625 18.8713 19.1287 19.375 19.75 19.375Z" fill="#F3F3F3"/>
</g>
</g>
<defs>
<clipPath id="clip0_631_26265">
<rect width="32" height="32" rx="16" fill="white"/>
</clipPath>
<clipPath id="clip1_631_26265">
<rect width="18" height="18" fill="white" transform="translate(7 7)"/>
</clipPath>
</defs>
</svg>
