<svg width="32" height="32" viewBox="0 0 32 32" fill="none" xmlns="http://www.w3.org/2000/svg">
<g clip-path="url(#clip0_640_26534)">
<path d="M11.8333 10.9999H25.1667C25.3877 10.9999 25.5996 10.9121 25.7559 10.7558C25.9122 10.5996 26 10.3876 26 10.1666C26 9.94557 25.9122 9.73361 25.7559 9.57733C25.5996 9.42105 25.3877 9.33325 25.1667 9.33325H11.8333C11.6123 9.33325 11.4004 9.42105 11.2441 9.57733C11.0878 9.73361 11 9.94557 11 10.1666C11 10.3876 11.0878 10.5996 11.2441 10.7558C11.4004 10.9121 11.6123 10.9999 11.8333 10.9999Z" fill="#F3F3F3"/>
<path d="M25.1667 15.1667H11.8333C11.6123 15.1667 11.4004 15.2545 11.2441 15.4108C11.0878 15.5671 11 15.7791 11 16.0001C11 16.2211 11.0878 16.4331 11.2441 16.5893C11.4004 16.7456 11.6123 16.8334 11.8333 16.8334H25.1667C25.3877 16.8334 25.5996 16.7456 25.7559 16.5893C25.9122 16.4331 26 16.2211 26 16.0001C26 15.7791 25.9122 15.5671 25.7559 15.4108C25.5996 15.2545 25.3877 15.1667 25.1667 15.1667Z" fill="#F3F3F3"/>
<path d="M25.1667 21H11.8333C11.6123 21 11.4004 21.0878 11.2441 21.2441C11.0878 21.4004 11 21.6123 11 21.8333C11 22.0543 11.0878 22.2663 11.2441 22.4226C11.4004 22.5789 11.6123 22.6667 11.8333 22.6667H25.1667C25.3877 22.6667 25.5996 22.5789 25.7559 22.4226C25.9122 22.2663 26 22.0543 26 21.8333C26 21.6123 25.9122 21.4004 25.7559 21.2441C25.5996 21.0878 25.3877 21 25.1667 21Z" fill="#F3F3F3"/>
<path d="M7.66667 11.8333C8.58714 11.8333 9.33333 11.0871 9.33333 10.1667C9.33333 9.24619 8.58714 8.5 7.66667 8.5C6.74619 8.5 6 9.24619 6 10.1667C6 11.0871 6.74619 11.8333 7.66667 11.8333Z" fill="#F3F3F3"/>
<path d="M7.66667 17.6666C8.58714 17.6666 9.33333 16.9204 9.33333 15.9999C9.33333 15.0794 8.58714 14.3333 7.66667 14.3333C6.74619 14.3333 6 15.0794 6 15.9999C6 16.9204 6.74619 17.6666 7.66667 17.6666Z" fill="#F3F3F3"/>
<path d="M7.66667 23.5001C8.58714 23.5001 9.33333 22.7539 9.33333 21.8334C9.33333 20.9129 8.58714 20.1667 7.66667 20.1667C6.74619 20.1667 6 20.9129 6 21.8334C6 22.7539 6.74619 23.5001 7.66667 23.5001Z" fill="#F3F3F3"/>
</g>
<defs>
<clipPath id="clip0_640_26534">
<rect width="20" height="20" fill="white" transform="translate(6 6)"/>
</clipPath>
</defs>
</svg>
