<svg width="32" height="32" viewBox="0 0 32 32" fill="none" xmlns="http://www.w3.org/2000/svg">
<g clip-path="url(#clip0_38_1812)">
<rect width="32" height="32" fill="#5AB374"/>
<g clip-path="url(#clip1_38_1812)">
<path d="M16 7C14.22 7 12.4799 7.52784 10.9999 8.51677C9.51983 9.50571 8.36628 10.9113 7.68509 12.5558C7.0039 14.2004 6.82567 16.01 7.17294 17.7558C7.5202 19.5016 8.37737 21.1053 9.63604 22.364C10.8947 23.6226 12.4984 24.4798 14.2442 24.8271C15.99 25.1743 17.7996 24.9961 19.4442 24.3149C21.0887 23.6337 22.4943 22.4802 23.4832 21.0001C24.4722 19.5201 25 17.78 25 16C24.9974 13.6138 24.0484 11.3262 22.3611 9.63889C20.6738 7.95162 18.3862 7.00258 16 7V7ZM16 23.5C14.5166 23.5 13.0666 23.0601 11.8332 22.236C10.5999 21.4119 9.63856 20.2406 9.07091 18.8701C8.50325 17.4997 8.35473 15.9917 8.64411 14.5368C8.9335 13.082 9.64781 11.7456 10.6967 10.6967C11.7456 9.64781 13.082 8.9335 14.5368 8.64411C15.9917 8.35472 17.4997 8.50325 18.8701 9.0709C20.2406 9.63856 21.4119 10.5999 22.236 11.8332C23.0601 13.0666 23.5 14.5166 23.5 16C23.4978 17.9885 22.7069 19.8948 21.3009 21.3009C19.8948 22.7069 17.9885 23.4978 16 23.5Z" fill="#F3F3F3"/>
<path d="M16.5378 10.7972C16.1052 10.7184 15.6607 10.7357 15.2356 10.8477C14.8105 10.9597 14.4152 11.1638 14.0777 11.4455C13.7402 11.7272 13.4687 12.0796 13.2825 12.4778C13.0962 12.8761 12.9998 13.3104 13 13.75C13 13.9489 13.079 14.1397 13.2197 14.2803C13.3603 14.421 13.5511 14.5 13.75 14.5C13.9489 14.5 14.1397 14.421 14.2803 14.2803C14.421 14.1397 14.5 13.9489 14.5 13.75C14.4998 13.5293 14.5483 13.3113 14.642 13.1116C14.7358 12.9118 14.8724 12.7352 15.0423 12.5943C15.2121 12.4534 15.4109 12.3517 15.6246 12.2965C15.8382 12.2412 16.0614 12.2338 16.2783 12.2747C16.5745 12.3323 16.8469 12.4768 17.0607 12.6899C17.2744 12.9029 17.4198 13.1749 17.4783 13.471C17.5373 13.7818 17.4965 14.1033 17.3618 14.3895C17.2271 14.6758 17.0054 14.9121 16.7283 15.0647C16.2694 15.3306 15.8902 15.7146 15.6302 16.1768C15.3702 16.6391 15.2389 17.1625 15.25 17.6927V18.25C15.25 18.4489 15.329 18.6397 15.4697 18.7803C15.6103 18.921 15.8011 19 16 19C16.1989 19 16.3897 18.921 16.5303 18.7803C16.671 18.6397 16.75 18.4489 16.75 18.25V17.6927C16.7406 17.4318 16.8001 17.1729 16.9226 16.9422C17.045 16.7115 17.2261 16.5172 17.4475 16.3787C17.9909 16.0803 18.4285 15.6208 18.7001 15.0635C18.9717 14.5063 19.0639 13.8785 18.9642 13.2666C18.8645 12.6548 18.5776 12.0888 18.1431 11.6466C17.7086 11.2044 17.1478 10.9077 16.5378 10.7972Z" fill="#F3F3F3"/>
<path d="M16.75 20.5C16.75 20.0858 16.4142 19.75 16 19.75C15.5858 19.75 15.25 20.0858 15.25 20.5C15.25 20.9142 15.5858 21.25 16 21.25C16.4142 21.25 16.75 20.9142 16.75 20.5Z" fill="#F3F3F3"/>
</g>
</g>
<defs>
<clipPath id="clip0_38_1812">
<rect width="32" height="32" rx="16" fill="white"/>
</clipPath>
<clipPath id="clip1_38_1812">
<rect width="18" height="18" fill="white" transform="translate(7 7)"/>
</clipPath>
</defs>
</svg>
