<svg width="32" height="32" viewBox="0 0 32 32" fill="none" xmlns="http://www.w3.org/2000/svg">
<g clip-path="url(#clip0_38_2352)">
<rect width="32" height="32" fill="#1D1D1D"/>
<g clip-path="url(#clip1_38_2352)">
<path d="M22 12.25H20.6965C21.1206 11.8762 21.4572 11.4137 21.6824 10.8952C21.9077 10.3767 22.0161 9.81506 22 9.25C22 9.05109 21.921 8.86032 21.7803 8.71967C21.6397 8.57902 21.4489 8.5 21.25 8.5C21.0511 8.5 20.8603 8.57902 20.7197 8.71967C20.579 8.86032 20.5 9.05109 20.5 9.25C20.5 11.2165 18.7218 11.8975 17.3695 12.1308C17.8686 11.2458 18.1691 10.2628 18.25 9.25C18.25 8.65326 18.0129 8.08097 17.591 7.65901C17.169 7.23705 16.5967 7 16 7C15.4033 7 14.831 7.23705 14.409 7.65901C13.9871 8.08097 13.75 8.65326 13.75 9.25C13.8309 10.2628 14.1314 11.2458 14.6305 12.1308C13.2782 11.8975 11.5 11.2165 11.5 9.25C11.5 9.05109 11.421 8.86032 11.2803 8.71967C11.1397 8.57902 10.9489 8.5 10.75 8.5C10.5511 8.5 10.3603 8.57902 10.2197 8.71967C10.079 8.86032 10 9.05109 10 9.25C9.98388 9.81506 10.0923 10.3767 10.3176 10.8952C10.5428 11.4137 10.8794 11.8762 11.3035 12.25H10C9.20435 12.25 8.44129 12.5661 7.87868 13.1287C7.31607 13.6913 7 14.4544 7 15.25L7 16C7 16.3978 7.15804 16.7794 7.43934 17.0607C7.72064 17.342 8.10218 17.5 8.5 17.5V21.25C8.50119 22.2442 8.89666 23.1973 9.59966 23.9003C10.3027 24.6033 11.2558 24.9988 12.25 25H19.75C20.7442 24.9988 21.6973 24.6033 22.4003 23.9003C23.1033 23.1973 23.4988 22.2442 23.5 21.25V17.5C23.8978 17.5 24.2794 17.342 24.5607 17.0607C24.842 16.7794 25 16.3978 25 16V15.25C25 14.4544 24.6839 13.6913 24.1213 13.1287C23.5587 12.5661 22.7956 12.25 22 12.25ZM16 8.5C16.1989 8.5 16.3897 8.57902 16.5303 8.71967C16.671 8.86032 16.75 9.05109 16.75 9.25C16.6595 10.0471 16.404 10.8167 16 11.5097C15.596 10.8167 15.3405 10.0471 15.25 9.25C15.25 9.05109 15.329 8.86032 15.4697 8.71967C15.6103 8.57902 15.8011 8.5 16 8.5ZM8.5 15.25C8.5 14.8522 8.65804 14.4706 8.93934 14.1893C9.22064 13.908 9.60218 13.75 10 13.75H15.25V16H8.5V15.25ZM10 21.25V17.5H15.25V23.5H12.25C11.6533 23.5 11.081 23.2629 10.659 22.841C10.2371 22.419 10 21.8467 10 21.25ZM22 21.25C22 21.8467 21.7629 22.419 21.341 22.841C20.919 23.2629 20.3467 23.5 19.75 23.5H16.75V17.5H22V21.25ZM16.75 16V13.75H22C22.3978 13.75 22.7794 13.908 23.0607 14.1893C23.342 14.4706 23.5 14.8522 23.5 15.25V16H16.75Z" fill="#F3F3F3"/>
</g>
</g>
<defs>
<clipPath id="clip0_38_2352">
<rect width="32" height="32" rx="16" fill="white"/>
</clipPath>
<clipPath id="clip1_38_2352">
<rect width="18" height="18" fill="white" transform="translate(7 7)"/>
</clipPath>
</defs>
</svg>
