<svg width="32" height="32" viewBox="0 0 32 32" fill="none" xmlns="http://www.w3.org/2000/svg">
<g clip-path="url(#clip0_38_1371)">
<rect width="32" height="32" fill="#ED8B44"/>
<g clip-path="url(#clip1_38_1371)">
<path d="M20.992 7.6975L11.848 16.8415C11.4988 17.1889 11.2219 17.602 11.0334 18.0571C10.845 18.5122 10.7486 19.0002 10.75 19.4928V20.5C10.75 20.6989 10.829 20.8897 10.9697 21.0303C11.1103 21.171 11.3011 21.25 11.5 21.25H12.5073C12.9998 21.2514 13.4878 21.1551 13.9429 20.9666C14.398 20.7781 14.8112 20.5012 15.1585 20.152L24.3025 11.008C24.7408 10.5686 24.987 9.97336 24.987 9.35275C24.987 8.73214 24.7408 8.13687 24.3025 7.6975C23.8568 7.27142 23.2639 7.03364 22.6473 7.03364C22.0306 7.03364 21.4378 7.27142 20.992 7.6975ZM23.242 9.9475L14.098 19.0915C13.6751 19.5118 13.1035 19.7484 12.5073 19.75H12.25V19.4928C12.2516 18.8965 12.4882 18.3249 12.9085 17.902L22.0525 8.758C22.2127 8.60497 22.4257 8.51957 22.6473 8.51957C22.8688 8.51957 23.0818 8.60497 23.242 8.758C23.3995 8.91589 23.4879 9.12977 23.4879 9.35275C23.4879 9.57573 23.3995 9.78961 23.242 9.9475Z" fill="#F3F3F3"/>
<path d="M24.25 13.7343C24.0511 13.7343 23.8603 13.8133 23.7197 13.9539C23.579 14.0946 23.5 14.2853 23.5 14.4843V18.25H20.5C19.9033 18.25 19.331 18.4871 18.909 18.909C18.4871 19.331 18.25 19.9033 18.25 20.5V23.5H10.75C10.1533 23.5 9.58097 23.2629 9.15901 22.841C8.73705 22.419 8.5 21.8467 8.5 21.25V10.75C8.5 10.1533 8.73705 9.58097 9.15901 9.15901C9.58097 8.73705 10.1533 8.5 10.75 8.5H17.5315C17.7304 8.5 17.9212 8.42098 18.0618 8.28033C18.2025 8.13968 18.2815 7.94891 18.2815 7.75C18.2815 7.55109 18.2025 7.36032 18.0618 7.21967C17.9212 7.07902 17.7304 7 17.5315 7H10.75C9.7558 7.00119 8.80267 7.39666 8.09967 8.09967C7.39666 8.80267 7.00119 9.7558 7 10.75L7 21.25C7.00119 22.2442 7.39666 23.1973 8.09967 23.9003C8.80267 24.6033 9.7558 24.9988 10.75 25H19.2573C19.7499 25.0014 20.238 24.9051 20.6932 24.7166C21.1484 24.5281 21.5618 24.2513 21.9093 23.902L23.9013 21.9085C24.2506 21.5612 24.5275 21.148 24.7161 20.6929C24.9047 20.2378 25.0012 19.7499 25 19.2573V14.4843C25 14.2853 24.921 14.0946 24.7803 13.9539C24.6397 13.8133 24.4489 13.7343 24.25 13.7343ZM20.8488 22.8415C20.5473 23.1423 20.166 23.3505 19.75 23.4415V20.5C19.75 20.3011 19.829 20.1103 19.9697 19.9697C20.1103 19.829 20.3011 19.75 20.5 19.75H23.4438C23.351 20.1651 23.143 20.5457 22.8438 20.848L20.8488 22.8415Z" fill="#F3F3F3"/>
</g>
</g>
<defs>
<clipPath id="clip0_38_1371">
<rect width="32" height="32" rx="16" fill="white"/>
</clipPath>
<clipPath id="clip1_38_1371">
<rect width="18" height="18" fill="white" transform="translate(7 7)"/>
</clipPath>
</defs>
</svg>
