<svg width="32" height="32" viewBox="0 0 32 32" fill="none" xmlns="http://www.w3.org/2000/svg">
<g clip-path="url(#clip0_38_1126)">
<rect width="32" height="32" fill="#5AB374"/>
<g clip-path="url(#clip1_38_1126)">
<path d="M16 13C15.4067 13 14.8266 13.1759 14.3333 13.5056C13.8399 13.8352 13.4554 14.3038 13.2284 14.8519C13.0013 15.4001 12.9419 16.0033 13.0576 16.5853C13.1734 17.1672 13.4591 17.7018 13.8787 18.1213C14.2982 18.5409 14.8328 18.8266 15.4147 18.9424C15.9967 19.0581 16.5999 18.9987 17.1481 18.7716C17.6962 18.5446 18.1648 18.1601 18.4944 17.6667C18.8241 17.1734 19 16.5933 19 16C19 15.2044 18.6839 14.4413 18.1213 13.8787C17.5587 13.3161 16.7957 13 16 13ZM16 17.5C15.7033 17.5 15.4133 17.412 15.1666 17.2472C14.92 17.0824 14.7277 16.8481 14.6142 16.574C14.5007 16.2999 14.4709 15.9983 14.5288 15.7074C14.5867 15.4164 14.7296 15.1491 14.9393 14.9393C15.1491 14.7296 15.4164 14.5867 15.7074 14.5288C15.9983 14.4709 16.2999 14.5006 16.574 14.6142C16.8481 14.7277 17.0824 14.92 17.2472 15.1666C17.412 15.4133 17.5 15.7033 17.5 16C17.5 16.3978 17.342 16.7794 17.0607 17.0607C16.7794 17.342 16.3978 17.5 16 17.5Z" fill="#F3F3F3"/>
<path d="M22.9704 17.425L22.6374 17.233C22.7873 16.4173 22.7873 15.5812 22.6374 14.7655L22.9704 14.5735C23.2264 14.4258 23.4509 14.229 23.6309 13.9945C23.811 13.7601 23.9431 13.4924 24.0197 13.2069C24.0963 12.9213 24.1159 12.6235 24.0774 12.3304C24.0389 12.0372 23.9431 11.7546 23.7954 11.4985C23.6476 11.2424 23.4509 11.018 23.2164 10.8379C22.9819 10.6579 22.7143 10.5258 22.4287 10.4491C22.1432 10.3725 21.8453 10.3529 21.5522 10.3914C21.2591 10.4299 20.9764 10.5258 20.7204 10.6735L20.3866 10.8663C19.7563 10.3277 19.0318 9.91019 18.2498 9.63475V9.25C18.2498 8.65326 18.0128 8.08097 17.5908 7.65901C17.1689 7.23705 16.5966 7 15.9998 7C15.4031 7 14.8308 7.23705 14.4089 7.65901C13.9869 8.08097 13.7498 8.65326 13.7498 9.25V9.63475C12.9679 9.91118 12.2437 10.3297 11.6138 10.8692L11.2786 10.675C10.7614 10.3766 10.1469 10.2959 9.57024 10.4506C8.99356 10.6054 8.50197 10.9828 8.2036 11.5C7.90523 12.0172 7.82453 12.6317 7.97925 13.2084C8.13396 13.785 8.51143 14.2766 9.0286 14.575L9.3616 14.767C9.21168 15.5827 9.21168 16.4188 9.3616 17.2345L9.0286 17.4265C8.51143 17.7249 8.13396 18.2165 7.97925 18.7931C7.82453 19.3698 7.90523 19.9843 8.2036 20.5015C8.50197 21.0187 8.99356 21.3961 9.57024 21.5509C10.1469 21.7056 10.7614 21.6249 11.2786 21.3265L11.6123 21.1337C12.2429 21.6724 12.9676 22.0899 13.7498 22.3652V22.75C13.7498 23.3467 13.9869 23.919 14.4089 24.341C14.8308 24.7629 15.4031 25 15.9998 25C16.5966 25 17.1689 24.7629 17.5908 24.341C18.0128 23.919 18.2498 23.3467 18.2498 22.75V22.3652C19.0318 22.0888 19.756 21.6703 20.3858 21.1307L20.7211 21.3243C21.2383 21.6226 21.8528 21.7033 22.4295 21.5486C23.0061 21.3939 23.4977 21.0164 23.7961 20.4993C24.0945 19.9821 24.1752 19.3676 24.0205 18.7909C23.8657 18.2142 23.4883 17.7226 22.9711 17.4242L22.9704 17.425ZM21.0594 14.593C21.3133 15.5133 21.3133 16.4852 21.0594 17.4055C21.015 17.5657 21.0251 17.7361 21.0881 17.8899C21.1511 18.0437 21.2634 18.1722 21.4073 18.2552L22.2204 18.7248C22.3927 18.8242 22.5185 18.9881 22.57 19.1803C22.6216 19.3725 22.5947 19.5773 22.4952 19.7496C22.3958 19.922 22.2319 20.0478 22.0397 20.0993C21.8475 20.1509 21.6427 20.124 21.4704 20.0245L20.6558 19.5535C20.5118 19.4701 20.344 19.4369 20.179 19.4593C20.014 19.4817 19.8612 19.5584 19.7446 19.6772C19.077 20.3587 18.236 20.845 17.3123 21.0835C17.1511 21.125 17.0083 21.2189 16.9063 21.3504C16.8043 21.482 16.749 21.6438 16.7491 21.8102V22.75C16.7491 22.9489 16.6701 23.1397 16.5294 23.2803C16.3888 23.421 16.198 23.5 15.9991 23.5C15.8002 23.5 15.6094 23.421 15.4688 23.2803C15.3281 23.1397 15.2491 22.9489 15.2491 22.75V21.811C15.2492 21.6445 15.1939 21.4828 15.0919 21.3512C14.9899 21.2196 14.8471 21.1257 14.6858 21.0842C13.7621 20.8448 12.9213 20.3575 12.2543 19.675C12.1377 19.5561 11.9849 19.4795 11.8199 19.4571C11.6549 19.4347 11.4872 19.4678 11.3431 19.5513L10.5301 20.0215C10.4448 20.0715 10.3504 20.1042 10.2524 20.1176C10.1544 20.131 10.0547 20.1249 9.95909 20.0996C9.86346 20.0743 9.77379 20.0303 9.69521 19.9703C9.61664 19.9102 9.55073 19.8352 9.50128 19.7495C9.45182 19.6638 9.4198 19.5692 9.40705 19.4712C9.3943 19.3731 9.40108 19.2734 9.42699 19.178C9.45291 19.0825 9.49745 18.9931 9.55805 18.915C9.61865 18.8368 9.69411 18.7714 9.7801 18.7225L10.5931 18.253C10.7371 18.1699 10.8494 18.0414 10.9123 17.8876C10.9753 17.7338 10.9854 17.5634 10.9411 17.4032C10.6871 16.483 10.6871 15.511 10.9411 14.5908C10.9846 14.4309 10.9741 14.2612 10.911 14.108C10.8479 13.9548 10.7358 13.8268 10.5923 13.744L9.77935 13.2745C9.60699 13.175 9.4812 13.0112 9.42965 12.819C9.3781 12.6268 9.40502 12.422 9.50447 12.2496C9.60393 12.0773 9.76778 11.9515 9.95998 11.8999C10.1522 11.8484 10.357 11.8753 10.5293 11.9748L11.3438 12.4458C11.4875 12.5294 11.6549 12.5629 11.8197 12.5411C11.9846 12.5192 12.1374 12.4432 12.2543 12.325C12.9219 11.6435 13.7629 11.1573 14.6866 10.9187C14.8483 10.8772 14.9915 10.7828 15.0936 10.6506C15.1956 10.5184 15.2506 10.356 15.2498 10.189V9.25C15.2498 9.05109 15.3289 8.86032 15.4695 8.71967C15.6102 8.57902 15.8009 8.5 15.9998 8.5C16.1988 8.5 16.3895 8.57902 16.5302 8.71967C16.6708 8.86032 16.7498 9.05109 16.7498 9.25V10.189C16.7498 10.3555 16.8051 10.5172 16.907 10.6488C17.009 10.7804 17.1519 10.8743 17.3131 10.9158C18.2371 11.1551 19.0781 11.6424 19.7453 12.325C19.862 12.4439 20.0148 12.5205 20.1798 12.5429C20.3448 12.5653 20.5125 12.5322 20.6566 12.4488L21.4696 11.9785C21.5549 11.9285 21.6493 11.8958 21.7473 11.8824C21.8453 11.869 21.945 11.8751 22.0406 11.9004C22.1362 11.9257 22.2259 11.9697 22.3045 12.0297C22.3831 12.0898 22.449 12.1648 22.4984 12.2505C22.5479 12.3362 22.5799 12.4308 22.5927 12.5288C22.6054 12.6269 22.5986 12.7266 22.5727 12.822C22.5468 12.9175 22.5023 13.0069 22.4417 13.085C22.381 13.1632 22.3056 13.2286 22.2196 13.2775L21.4066 13.747C21.2634 13.83 21.1517 13.9581 21.0889 14.1113C21.026 14.2644 21.0157 14.4341 21.0594 14.5938V14.593Z" fill="#F3F3F3"/>
</g>
</g>
<defs>
<clipPath id="clip0_38_1126">
<rect width="32" height="32" rx="16" fill="white"/>
</clipPath>
<clipPath id="clip1_38_1126">
<rect width="18" height="18" fill="white" transform="translate(7 7)"/>
</clipPath>
</defs>
</svg>
