<svg width="32" height="32" viewBox="0 0 32 32" fill="none" xmlns="http://www.w3.org/2000/svg">
<g clip-path="url(#clip0_34_1305)">
<rect width="32" height="32" fill="#DD6060"/>
<g clip-path="url(#clip1_34_1305)">
<path d="M12.25 11.5H24.25C24.4489 11.5 24.6397 11.421 24.7803 11.2803C24.921 11.1397 25 10.9489 25 10.75C25 10.5511 24.921 10.3603 24.7803 10.2197C24.6397 10.079 24.4489 10 24.25 10H12.25C12.0511 10 11.8603 10.079 11.7197 10.2197C11.579 10.3603 11.5 10.5511 11.5 10.75C11.5 10.9489 11.579 11.1397 11.7197 11.2803C11.8603 11.421 12.0511 11.5 12.25 11.5Z" fill="#F3F3F3"/>
<path d="M24.25 15.25H12.25C12.0511 15.25 11.8603 15.329 11.7197 15.4697C11.579 15.6103 11.5 15.8011 11.5 16C11.5 16.1989 11.579 16.3897 11.7197 16.5303C11.8603 16.671 12.0511 16.75 12.25 16.75H24.25C24.4489 16.75 24.6397 16.671 24.7803 16.5303C24.921 16.3897 25 16.1989 25 16C25 15.8011 24.921 15.6103 24.7803 15.4697C24.6397 15.329 24.4489 15.25 24.25 15.25Z" fill="#F3F3F3"/>
<path d="M24.25 20.5H12.25C12.0511 20.5 11.8603 20.579 11.7197 20.7197C11.579 20.8603 11.5 21.0511 11.5 21.25C11.5 21.4489 11.579 21.6397 11.7197 21.7803C11.8603 21.921 12.0511 22 12.25 22H24.25C24.4489 22 24.6397 21.921 24.7803 21.7803C24.921 21.6397 25 21.4489 25 21.25C25 21.0511 24.921 20.8603 24.7803 20.7197C24.6397 20.579 24.4489 20.5 24.25 20.5Z" fill="#F3F3F3"/>
<path d="M8.5 12.25C9.32843 12.25 10 11.5784 10 10.75C10 9.92157 9.32843 9.25 8.5 9.25C7.67157 9.25 7 9.92157 7 10.75C7 11.5784 7.67157 12.25 8.5 12.25Z" fill="#F3F3F3"/>
<path d="M8.5 17.5C9.32843 17.5 10 16.8284 10 16C10 15.1716 9.32843 14.5 8.5 14.5C7.67157 14.5 7 15.1716 7 16C7 16.8284 7.67157 17.5 8.5 17.5Z" fill="#F3F3F3"/>
<path d="M8.5 22.75C9.32843 22.75 10 22.0784 10 21.25C10 20.4216 9.32843 19.75 8.5 19.75C7.67157 19.75 7 20.4216 7 21.25C7 22.0784 7.67157 22.75 8.5 22.75Z" fill="#F3F3F3"/>
</g>
</g>
<defs>
<clipPath id="clip0_34_1305">
<rect width="32" height="32" rx="16" fill="white"/>
</clipPath>
<clipPath id="clip1_34_1305">
<rect width="18" height="18" fill="white" transform="translate(7 7)"/>
</clipPath>
</defs>
</svg>
