<svg width="32" height="32" viewBox="0 0 32 32" fill="none" xmlns="http://www.w3.org/2000/svg">
<g clip-path="url(#clip0_38_1566)">
<rect width="32" height="32" fill="#DD6060"/>
<g clip-path="url(#clip1_38_1566)">
<path d="M24.8774 13.5955C24.724 13.1072 24.4175 12.6812 24.0032 12.3805C23.589 12.0799 23.089 11.9205 22.5771 11.926H19.3004L18.3051 8.824C18.1486 8.33572 17.8411 7.90976 17.4269 7.60755C17.0126 7.30534 16.5131 7.14249 16.0004 7.14249C15.4876 7.14249 14.9881 7.30534 14.5739 7.60755C14.1597 7.90976 13.8521 8.33572 13.6956 8.824L12.7004 11.926H9.42364C8.91345 11.9267 8.41653 12.0887 8.00387 12.3887C7.59121 12.6887 7.28392 13.1114 7.12588 13.5965C6.96784 14.0816 6.96714 14.6043 7.12388 15.0898C7.28062 15.5753 7.58678 15.9989 7.99864 16.3L10.6656 18.25L9.65164 21.3903C9.48777 21.8773 9.4857 22.4042 9.64572 22.8926C9.80574 23.3809 10.1193 23.8044 10.5396 24.1C10.9528 24.4051 11.4534 24.5685 11.967 24.566C12.4806 24.5634 12.9796 24.395 13.3896 24.0858L16.0004 22.1642L18.6119 24.0835C19.0243 24.3868 19.5222 24.5516 20.0342 24.5541C20.5461 24.5566 21.0456 24.3967 21.461 24.0974C21.8763 23.7981 22.186 23.3748 22.3456 22.8884C22.5052 22.4019 22.5064 21.8774 22.3491 21.3903L21.3351 18.25L24.0051 16.3C24.4217 16.0027 24.7315 15.5791 24.8885 15.092C25.0456 14.6049 25.0417 14.0802 24.8774 13.5955ZM23.1201 15.0887L20.0121 17.3605C19.8845 17.4536 19.7895 17.5847 19.7407 17.735C19.692 17.8853 19.6919 18.0472 19.7406 18.1975L20.9219 21.85C20.9817 22.0353 20.9812 22.2347 20.9204 22.4196C20.8597 22.6046 20.7419 22.7655 20.584 22.8793C20.426 22.9931 20.2361 23.0538 20.0414 23.0528C19.8467 23.0518 19.6574 22.9891 19.5006 22.8738L16.4444 20.6238C16.3157 20.5292 16.1601 20.4782 16.0004 20.4782C15.8407 20.4782 15.6851 20.5292 15.5564 20.6238L12.5001 22.8738C12.3435 22.9907 12.1536 23.0547 11.9581 23.0565C11.7626 23.0582 11.5716 22.9977 11.4128 22.8836C11.254 22.7695 11.1357 22.6079 11.075 22.422C11.0143 22.2362 11.0143 22.0358 11.0751 21.85L12.2601 18.1975C12.3088 18.0472 12.3088 17.8853 12.26 17.735C12.2113 17.5847 12.1163 17.4536 11.9886 17.3605L8.88064 15.0887C8.72412 14.9741 8.60781 14.813 8.54834 14.6284C8.48888 14.4437 8.48928 14.245 8.5495 14.0606C8.60972 13.8762 8.72668 13.7155 8.88367 13.6015C9.04066 13.4876 9.22965 13.4261 9.42364 13.426H13.2486C13.4074 13.426 13.5621 13.3756 13.6904 13.2821C13.8187 13.1885 13.9141 13.0567 13.9626 12.9055L15.1251 9.28225C15.1848 9.09684 15.3018 8.93514 15.4592 8.82044C15.6166 8.70573 15.8064 8.64393 16.0011 8.64393C16.1959 8.64393 16.3857 8.70573 16.5431 8.82044C16.7005 8.93514 16.8175 9.09684 16.8771 9.28225L18.0396 12.9055C18.0882 13.0567 18.1835 13.1885 18.3119 13.2821C18.4402 13.3756 18.5949 13.426 18.7536 13.426H22.5786C22.7726 13.4261 22.9616 13.4876 23.1186 13.6015C23.2756 13.7155 23.3926 13.8762 23.4528 14.0606C23.513 14.245 23.5134 14.4437 23.4539 14.6284C23.3945 14.813 23.2782 14.9741 23.1216 15.0887H23.1201Z" fill="#F3F3F3"/>
</g>
</g>
<defs>
<clipPath id="clip0_38_1566">
<rect width="32" height="32" rx="16" fill="white"/>
</clipPath>
<clipPath id="clip1_38_1566">
<rect width="18" height="18" fill="white" transform="translate(7 7)"/>
</clipPath>
</defs>
</svg>
