<svg width="32" height="32" viewBox="0 0 32 32" fill="none" xmlns="http://www.w3.org/2000/svg">
<g clip-path="url(#clip0_38_1581)">
<rect width="32" height="32" fill="#7982DA"/>
<g clip-path="url(#clip1_38_1581)">
<path d="M16 16C16.89 16 17.76 15.7361 18.5001 15.2416C19.2401 14.7471 19.8169 14.0443 20.1575 13.2221C20.4981 12.3998 20.5872 11.495 20.4135 10.6221C20.2399 9.74918 19.8113 8.94736 19.182 8.31802C18.5526 7.68869 17.7508 7.2601 16.8779 7.08647C16.005 6.91283 15.1002 7.00195 14.2779 7.34254C13.4557 7.68314 12.7529 8.25991 12.2584 8.99994C11.7639 9.73996 11.5 10.61 11.5 11.5C11.5012 12.6931 11.9757 13.837 12.8193 14.6807C13.663 15.5243 14.8069 15.9988 16 16ZM16 8.5C16.5933 8.5 17.1734 8.67595 17.6667 9.00559C18.1601 9.33524 18.5446 9.80377 18.7716 10.352C18.9987 10.9001 19.0581 11.5033 18.9424 12.0853C18.8266 12.6672 18.5409 13.2018 18.1213 13.6213C17.7018 14.0409 17.1672 14.3266 16.5853 14.4424C16.0033 14.5581 15.4001 14.4987 14.8519 14.2716C14.3038 14.0446 13.8352 13.6601 13.5056 13.1667C13.1759 12.6734 13 12.0933 13 11.5C13 10.7044 13.3161 9.94129 13.8787 9.37868C14.4413 8.81607 15.2044 8.5 16 8.5Z" fill="#F3F3F3"/>
<path d="M16 17.5C14.2104 17.502 12.4947 18.2138 11.2292 19.4792C9.96378 20.7447 9.25199 22.4604 9.25 24.25C9.25 24.4489 9.32902 24.6397 9.46967 24.7803C9.61032 24.921 9.80109 25 10 25C10.1989 25 10.3897 24.921 10.5303 24.7803C10.671 24.6397 10.75 24.4489 10.75 24.25C10.75 22.8576 11.3031 21.5223 12.2877 20.5377C13.2723 19.5531 14.6076 19 16 19C17.3924 19 18.7277 19.5531 19.7123 20.5377C20.6969 21.5223 21.25 22.8576 21.25 24.25C21.25 24.4489 21.329 24.6397 21.4697 24.7803C21.6103 24.921 21.8011 25 22 25C22.1989 25 22.3897 24.921 22.5303 24.7803C22.671 24.6397 22.75 24.4489 22.75 24.25C22.748 22.4604 22.0362 20.7447 20.7708 19.4792C19.5053 18.2138 17.7896 17.502 16 17.5Z" fill="#F3F3F3"/>
</g>
</g>
<defs>
<clipPath id="clip0_38_1581">
<rect width="32" height="32" rx="16" fill="white"/>
</clipPath>
<clipPath id="clip1_38_1581">
<rect width="18" height="18" fill="white" transform="translate(7 7)"/>
</clipPath>
</defs>
</svg>
