<svg width="32" height="32" viewBox="0 0 32 32" fill="none" xmlns="http://www.w3.org/2000/svg">
<g clip-path="url(#clip0_38_2337)">
<rect width="32" height="32" fill="#1D1D1D"/>
<path d="M21.9373 16.9349L20.8686 13.0896C20.5553 11.9631 19.8745 10.9737 18.9343 10.2785C17.9942 9.58336 16.8486 9.22242 15.6798 9.25307C14.5109 9.28371 13.3859 9.70418 12.4834 10.4476C11.581 11.1911 10.9529 12.2149 10.6991 13.3562L9.8717 17.0772C9.78031 17.4883 9.78242 17.9148 9.87789 18.325C9.97336 18.7352 10.1597 19.1188 10.4233 19.4473C10.6868 19.7759 11.0208 20.041 11.4005 20.2232C11.7803 20.4054 12.1961 20.5 12.6173 20.5H13.2439C13.373 21.1358 13.7179 21.7074 14.2202 22.118C14.7226 22.5285 15.3514 22.7528 16.0001 22.7528C16.6489 22.7528 17.2777 22.5285 17.78 22.118C18.2824 21.7074 18.6273 21.1358 18.7564 20.5H19.2278C19.6613 20.5 20.0891 20.3998 20.4775 20.2072C20.8659 20.0145 21.2046 19.7347 21.467 19.3895C21.7294 19.0444 21.9084 18.6432 21.9901 18.2174C22.0718 17.7916 22.0539 17.3526 21.9379 16.9349H21.9373ZM16.0001 21.625C15.6524 21.6236 15.3135 21.5147 15.03 21.3133C14.7465 21.1119 14.5321 20.8279 14.4161 20.5H17.5841C17.4682 20.8279 17.2538 21.1119 16.9703 21.3133C16.6867 21.5147 16.3479 21.6236 16.0001 21.625ZM20.571 18.7084C20.4143 18.9164 20.2112 19.0849 19.9779 19.2006C19.7446 19.3163 19.4876 19.376 19.2272 19.375H12.6173C12.3646 19.375 12.1151 19.3182 11.8873 19.2088C11.6595 19.0995 11.4592 18.9404 11.3011 18.7432C11.143 18.5461 11.0312 18.316 10.974 18.0699C10.9167 17.8238 10.9154 17.568 10.9703 17.3213L11.7971 13.5998C11.9965 12.7033 12.4898 11.8991 13.1986 11.3152C13.9074 10.7312 14.7911 10.401 15.7092 10.3769C16.6273 10.3529 17.5271 10.6364 18.2655 11.1824C19.0039 11.7285 19.5387 12.5057 19.7846 13.3906L20.8534 17.2358C20.924 17.4863 20.9353 17.7499 20.8862 18.0055C20.8372 18.2611 20.7293 18.5018 20.571 18.7084Z" fill="#F3F3F3"/>
</g>
<defs>
<clipPath id="clip0_38_2337">
<rect width="32" height="32" rx="16" fill="white"/>
</clipPath>
</defs>
</svg>
