<svg width="32" height="32" viewBox="0 0 32 32" fill="none" xmlns="http://www.w3.org/2000/svg">
<g clip-path="url(#clip0_38_1350)">
<rect width="32" height="32" fill="#7982DA"/>
<g clip-path="url(#clip1_38_1350)">
<path d="M24.7798 23.7197L20.3031 19.243C21.5231 17.7509 22.1229 15.8471 21.9785 13.9252C21.8341 12.0033 20.9565 10.2104 19.5273 8.91739C18.0981 7.62438 16.2265 6.93017 14.2998 6.97834C12.3731 7.02651 10.5386 7.81339 9.1758 9.17621C7.81298 10.539 7.02611 12.3735 6.97794 14.3002C6.92976 16.2269 7.62398 18.0985 8.91698 19.5277C10.21 20.9569 12.0029 21.8345 13.9248 21.9789C15.8467 22.1233 17.7505 21.5235 19.2426 20.3035L23.7193 24.7802C23.8608 24.9169 24.0502 24.9925 24.2469 24.9908C24.4435 24.989 24.6317 24.9102 24.7707 24.7711C24.9098 24.6321 24.9886 24.4439 24.9904 24.2473C24.9921 24.0507 24.9165 23.8612 24.7798 23.7197ZM14.4996 20.5C13.3129 20.5 12.1529 20.1481 11.1662 19.4888C10.1795 18.8295 9.41044 17.8925 8.95632 16.7961C8.50219 15.6997 8.38337 14.4933 8.61488 13.3295C8.84639 12.1656 9.41784 11.0965 10.257 10.2574C11.0961 9.41824 12.1652 8.8468 13.3291 8.61528C14.4929 8.38377 15.6993 8.50259 16.7957 8.95672C17.892 9.41085 18.8291 10.1799 19.4884 11.1666C20.1477 12.1533 20.4996 13.3133 20.4996 14.5C20.4978 16.0907 19.8651 17.6158 18.7403 18.7407C17.6154 19.8655 16.0903 20.4982 14.4996 20.5Z" fill="#F3F3F3"/>
</g>
</g>
<defs>
<clipPath id="clip0_38_1350">
<rect width="32" height="32" rx="16" fill="white"/>
</clipPath>
<clipPath id="clip1_38_1350">
<rect width="18" height="18" fill="white" transform="translate(7 7)"/>
</clipPath>
</defs>
</svg>
