<svg width="32" height="32" viewBox="0 0 32 32" fill="none" xmlns="http://www.w3.org/2000/svg">
<g clip-path="url(#clip0_38_1225)">
<rect width="32" height="32" fill="#7982DA"/>
<g clip-path="url(#clip1_38_1225)">
<path d="M22.75 10H20.425C20.2509 9.15356 19.7904 8.39301 19.1209 7.84654C18.4515 7.30007 17.6142 7.00109 16.75 7L15.25 7C14.3858 7.00109 13.5485 7.30007 12.8791 7.84654C12.2096 8.39301 11.7491 9.15356 11.575 10H9.25C9.05109 10 8.86032 10.079 8.71967 10.2197C8.57902 10.3603 8.5 10.5511 8.5 10.75C8.5 10.9489 8.57902 11.1397 8.71967 11.2803C8.86032 11.421 9.05109 11.5 9.25 11.5H10V21.25C10.0012 22.2442 10.3967 23.1973 11.0997 23.9003C11.8027 24.6033 12.7558 24.9988 13.75 25H18.25C19.2442 24.9988 20.1973 24.6033 20.9003 23.9003C21.6033 23.1973 21.9988 22.2442 22 21.25V11.5H22.75C22.9489 11.5 23.1397 11.421 23.2803 11.2803C23.421 11.1397 23.5 10.9489 23.5 10.75C23.5 10.5511 23.421 10.3603 23.2803 10.2197C23.1397 10.079 22.9489 10 22.75 10ZM15.25 8.5H16.75C17.2152 8.50057 17.6688 8.64503 18.0487 8.91358C18.4286 9.18213 18.7161 9.56162 18.8717 10H13.1282C13.2839 9.56162 13.5714 9.18213 13.9513 8.91358C14.3312 8.64503 14.7848 8.50057 15.25 8.5ZM20.5 21.25C20.5 21.8467 20.2629 22.419 19.841 22.841C19.419 23.2629 18.8467 23.5 18.25 23.5H13.75C13.1533 23.5 12.581 23.2629 12.159 22.841C11.7371 22.419 11.5 21.8467 11.5 21.25V11.5H20.5V21.25Z" fill="#F3F3F3"/>
<path d="M14.5 20.5C14.6989 20.5 14.8897 20.421 15.0303 20.2803C15.171 20.1397 15.25 19.9489 15.25 19.75V15.25C15.25 15.0511 15.171 14.8603 15.0303 14.7197C14.8897 14.579 14.6989 14.5 14.5 14.5C14.3011 14.5 14.1103 14.579 13.9697 14.7197C13.829 14.8603 13.75 15.0511 13.75 15.25V19.75C13.75 19.9489 13.829 20.1397 13.9697 20.2803C14.1103 20.421 14.3011 20.5 14.5 20.5Z" fill="#F3F3F3"/>
<path d="M17.5 20.5C17.6989 20.5 17.8897 20.421 18.0303 20.2803C18.171 20.1397 18.25 19.9489 18.25 19.75V15.25C18.25 15.0511 18.171 14.8603 18.0303 14.7197C17.8897 14.579 17.6989 14.5 17.5 14.5C17.3011 14.5 17.1103 14.579 16.9697 14.7197C16.829 14.8603 16.75 15.0511 16.75 15.25V19.75C16.75 19.9489 16.829 20.1397 16.9697 20.2803C17.1103 20.421 17.3011 20.5 17.5 20.5Z" fill="#F3F3F3"/>
</g>
</g>
<defs>
<clipPath id="clip0_38_1225">
<rect width="32" height="32" rx="16" fill="white"/>
</clipPath>
<clipPath id="clip1_38_1225">
<rect width="18" height="18" fill="white" transform="translate(7 7)"/>
</clipPath>
</defs>
</svg>
