<svg width="192" height="192" viewBox="0 0 192 192" fill="none" xmlns="http://www.w3.org/2000/svg">
<rect x="1" y="1" width="190" height="190" rx="4" fill="#DD6060"/>
<path fill-rule="evenodd" clip-rule="evenodd" d="M144 32H48C39.1634 32 32 39.1634 32 48C32 56.8366 39.1634 64 48 64H144C152.837 64 160 56.8366 160 48C160 39.1634 152.837 32 144 32Z" fill="#F3F3F3"/>
<path fill-rule="evenodd" clip-rule="evenodd" d="M144 80C139.52 80 135.52 81.84 132.64 84.72L107.28 110.08C104.4 112.96 100.4 114.72 96 114.72C91.6 114.72 87.6 112.96 84.72 110.08L59.28 84.72C56.4 81.76 52.4 80 48 80C39.2 80 32 87.2 32 96C32 100.4 33.76 104.4 36.72 107.28L84.72 155.36C87.68 158.24 91.44 159.84 95.28 160H96.8C98.56 159.92 100.24 159.52 101.76 158.96C103.76 158.16 105.68 156.96 107.28 155.28L124.24 138.32L155.2 107.28C158.16 104.4 159.92 100.4 159.92 96C159.92 87.2 152.72 80 143.92 80L144 80Z" fill="#F3F3F3"/>
<rect x="1" y="1" width="190" height="190" rx="4" stroke="#DD6060" stroke-width="2"/>
</svg>
