<svg width="24" height="24" viewBox="0 0 24 24" fill="none" xmlns="http://www.w3.org/2000/svg">
<g clip-path="url(#clip0_153_3611)">
<path d="M12 24C5.383 24 0 18.617 0 12C0 5.383 5.383 0 12 0C18.617 0 24 5.383 24 12C24 18.617 18.617 24 12 24ZM12 2C6.486 2 2 6.486 2 12C2 17.514 6.486 22 12 22C17.514 22 22 17.514 22 12C22 6.486 17.514 2 12 2ZM12.5 12.866L15.964 10.866C16.443 10.59 16.606 9.978 16.33 9.5C16.053 9.021 15.441 8.856 14.964 9.134L13 10.268V6C13 5.447 12.552 5 12 5C11.448 5 11 5.447 11 6V12C11 12.357 11.19 12.688 11.5 12.866C11.655 12.955 11.827 13 12 13C12.173 13 12.345 12.955 12.5 12.866Z" fill="#1D1D1D"/>
</g>
<defs>
<clipPath id="clip0_153_3611">
<rect width="24" height="24" fill="white"/>
</clipPath>
</defs>
</svg>
