<svg width="24" height="24" viewBox="0 0 24 24" fill="none" xmlns="http://www.w3.org/2000/svg">
<path d="M19.9161 13.2465L18.4911 8.11951C18.0734 6.61751 17.1657 5.29823 15.9121 4.37136C14.6586 3.4445 13.1312 2.96325 11.5727 3.00411C10.0143 3.04497 8.51417 3.6056 7.31091 4.59687C6.10765 5.58815 5.27027 6.95319 4.93186 8.47501L3.82861 13.4363C3.70675 13.9845 3.70957 14.553 3.83686 15.1C3.96415 15.647 4.21266 16.1584 4.56405 16.5964C4.91544 17.0345 5.36073 17.388 5.86705 17.631C6.37337 17.8739 6.92778 18 7.48936 18H8.32486C8.497 18.8477 8.95691 19.6099 9.62667 20.1573C10.2964 20.7047 11.1348 21.0038 11.9999 21.0038C12.8649 21.0038 13.7033 20.7047 14.3731 20.1573C15.0428 19.6099 15.5027 18.8477 15.6749 18H16.3034C16.8815 18.0001 17.4518 17.8664 17.9697 17.6096C18.4876 17.3527 18.9391 16.9796 19.289 16.5194C19.6388 16.0592 19.8775 15.5243 19.9865 14.9565C20.0954 14.3888 20.0716 13.8035 19.9169 13.2465H19.9161ZM11.9999 19.5C11.5362 19.4981 11.0844 19.3529 10.7063 19.0844C10.3283 18.8159 10.0424 18.4372 9.88787 18H14.1119C13.9573 18.4372 13.6714 18.8159 13.2934 19.0844C12.9153 19.3529 12.4636 19.4981 11.9999 19.5ZM18.0944 15.6113C17.8854 15.8885 17.6146 16.1132 17.3036 16.2675C16.9925 16.4218 16.6498 16.5014 16.3026 16.5H7.48936C7.15245 16.5 6.81986 16.4242 6.51612 16.2784C6.21239 16.1327 5.94527 15.9205 5.73449 15.6577C5.5237 15.3949 5.37463 15.088 5.29829 14.7599C5.22194 14.4318 5.22025 14.0906 5.29336 13.7618L6.39586 8.79976C6.66163 7.60442 7.31934 6.53222 8.26446 5.7536C9.20957 4.97498 10.3878 4.53464 11.6119 4.50257C12.8361 4.4705 14.0358 4.84855 15.0203 5.57661C16.0049 6.30468 16.7179 7.34097 17.0459 8.52076L18.4709 13.6478C18.565 13.9818 18.58 14.3332 18.5147 14.674C18.4493 15.0148 18.3054 15.3358 18.0944 15.6113Z" fill="#1D1D1D"/>
</svg>
