<svg width="24" height="24" viewBox="0 0 24 24" fill="none" xmlns="http://www.w3.org/2000/svg">
<g clip-path="url(#clip0_168_7780)">
<path fill-rule="evenodd" clip-rule="evenodd" d="M18 2H19C20.3256 2.00159 21.5964 2.52888 22.5338 3.46622C23.4711 4.40356 23.9984 5.67441 24 7V19C23.9984 20.3256 23.4711 21.5964 22.5338 22.5338C21.5964 23.4711 20.3256 23.9984 19 24H5C3.67441 23.9984 2.40356 23.4711 1.46622 22.5338C0.528882 21.5964 0.00158786 20.3256 0 19V7C0.00158786 5.67441 0.528882 4.40356 1.46622 3.46622C2.40356 2.52888 3.67441 2.00159 5 2H6V1C6 0.734784 6.10536 0.48043 6.29289 0.292893C6.48043 0.105357 6.73478 0 7 0C7.26522 0 7.51957 0.105357 7.70711 0.292893C7.89464 0.48043 8 0.734784 8 1V2H16V1C16 0.734784 16.1054 0.48043 16.2929 0.292893C16.4804 0.105357 16.7348 0 17 0C17.2652 0 17.5196 0.105357 17.7071 0.292893C17.8946 0.48043 18 0.734784 18 1V2ZM5 4C3.34315 4 2 5.34315 2 7V19C2 20.6569 3.34315 22 5 22H19C20.6569 22 22 20.6569 22 19V7C22 5.34315 20.6569 4 19 4H5Z" fill="#1D1D1D"/>
<path d="M11.1445 10.3906C11.1445 10.7773 11.0664 11.1133 10.9102 11.3984C10.7539 11.6836 10.5391 11.918 10.2656 12.1016C9.99609 12.2812 9.68359 12.4102 9.32812 12.4883V12.5293C10.0117 12.6152 10.5273 12.8301 10.875 13.1738C11.2266 13.5176 11.4023 13.9727 11.4023 14.5391C11.4023 15.0352 11.2832 15.4785 11.0449 15.8691C10.8066 16.2559 10.4414 16.5605 9.94922 16.7832C9.45703 17.0059 8.82422 17.1172 8.05078 17.1172C7.58594 17.1172 7.1543 17.0801 6.75586 17.0059C6.36133 16.9316 5.98633 16.8125 5.63086 16.6484V15.4238C5.99414 15.6035 6.38086 15.7422 6.79102 15.8398C7.20117 15.9375 7.58984 15.9863 7.95703 15.9863C8.67188 15.9863 9.18164 15.8535 9.48633 15.5879C9.79102 15.3184 9.94336 14.9473 9.94336 14.4746C9.94336 14.1699 9.86328 13.9199 9.70312 13.7246C9.54688 13.5293 9.30273 13.3828 8.9707 13.2852C8.64258 13.1875 8.21875 13.1387 7.69922 13.1387H6.94336V12.0312H7.70508C8.20117 12.0312 8.59961 11.9727 8.90039 11.8555C9.20117 11.7344 9.41797 11.5684 9.55078 11.3574C9.6875 11.1465 9.75586 10.9004 9.75586 10.6191C9.75586 10.252 9.63672 9.9668 9.39844 9.76367C9.16016 9.55664 8.80664 9.45312 8.33789 9.45312C8.04883 9.45312 7.78516 9.48633 7.54688 9.55273C7.3125 9.61914 7.0957 9.70312 6.89648 9.80469C6.69727 9.90625 6.50781 10.0156 6.32812 10.1328L5.66602 9.17773C5.99023 8.93555 6.37695 8.73047 6.82617 8.5625C7.27539 8.39453 7.79883 8.31055 8.39648 8.31055C9.27539 8.31055 9.95312 8.5 10.4297 8.87891C10.9062 9.25391 11.1445 9.75781 11.1445 10.3906ZM16.5879 17H15.2051V11.4863C15.2051 11.3027 15.207 11.1191 15.2109 10.9355C15.2148 10.752 15.2188 10.5723 15.2227 10.3965C15.2305 10.2207 15.2402 10.0527 15.252 9.89258C15.1699 9.98242 15.0684 10.0801 14.9473 10.1855C14.8301 10.291 14.7051 10.4004 14.5723 10.5137L13.5879 11.2988L12.8965 10.4258L15.4395 8.43359H16.5879V17Z" fill="#1D1D1D"/>
</g>
<defs>
<clipPath id="clip0_168_7780">
<rect width="24" height="24" fill="white"/>
</clipPath>
</defs>
</svg>
