<svg width="24" height="24" viewBox="0 0 24 24" fill="none" xmlns="http://www.w3.org/2000/svg">
<path d="M9.87801 14H14.122C14.1971 14.0003 14.2704 14.0238 14.3326 14.0676C14.3949 14.1113 14.4433 14.1733 14.4717 14.2456C14.5001 14.318 14.5073 14.3976 14.4924 14.4742C14.4774 14.5509 14.441 14.6212 14.3877 14.6763L12.2695 16.883C12.2342 16.9201 12.1922 16.9495 12.146 16.9696C12.0997 16.9897 12.0501 17 12 17C11.9499 17 11.9003 16.9897 11.854 16.9696C11.8078 16.9495 11.7658 16.9201 11.7305 16.883L9.61229 14.6763C9.55899 14.6212 9.52255 14.5509 9.5076 14.4742C9.49265 14.3976 9.49985 14.318 9.5283 14.2456C9.55674 14.1733 9.60514 14.1113 9.66739 14.0676C9.72964 14.0238 9.80294 14.0003 9.87801 14Z" fill="#1D1D1D"/>
<path d="M14.122 10L9.87801 10C9.80294 9.99967 9.72964 9.97616 9.66739 9.93243C9.60514 9.88871 9.55674 9.82674 9.5283 9.75435C9.49985 9.68197 9.49265 9.60242 9.5076 9.52577C9.52255 9.44912 9.55899 9.37882 9.61229 9.32374L11.7305 7.11698C11.7658 7.07991 11.8078 7.05049 11.854 7.03041C11.9003 7.01034 11.9499 7 12 7C12.0501 7 12.0997 7.01034 12.146 7.03041C12.1922 7.05049 12.2342 7.07991 12.2695 7.11698L14.3877 9.32374C14.441 9.37881 14.4774 9.44912 14.4924 9.52577C14.5073 9.60242 14.5001 9.68197 14.4717 9.75435C14.4433 9.82674 14.3949 9.88871 14.3326 9.93243C14.2704 9.97616 14.1971 9.99967 14.122 10Z" fill="#1D1D1D"/>
</svg>
