<svg width="24" height="24" viewBox="0 0 24 24" fill="none" xmlns="http://www.w3.org/2000/svg">
<g clip-path="url(#clip0_38_2131)">
<path d="M12 0C9.62663 0 7.30655 0.703788 5.33316 2.02236C3.35977 3.34094 1.8217 5.21509 0.913451 7.4078C0.00519943 9.60051 -0.232441 12.0133 0.230582 14.3411C0.693605 16.6689 1.83649 18.8071 3.51472 20.4853C5.19295 22.1635 7.33115 23.3064 9.65892 23.7694C11.9867 24.2324 14.3995 23.9948 16.5922 23.0866C18.7849 22.1783 20.6591 20.6402 21.9776 18.6668C23.2962 16.6935 24 14.3734 24 12C23.9966 8.81846 22.7312 5.76821 20.4815 3.51852C18.2318 1.26883 15.1815 0.00344108 12 0ZM12 22C10.0222 22 8.08879 21.4135 6.4443 20.3147C4.79981 19.2159 3.51809 17.6541 2.76121 15.8268C2.00433 13.9996 1.8063 11.9889 2.19215 10.0491C2.578 8.10929 3.53041 6.32746 4.92894 4.92893C6.32746 3.53041 8.10929 2.578 10.0491 2.19215C11.9889 1.8063 13.9996 2.00433 15.8268 2.7612C17.6541 3.51808 19.2159 4.79981 20.3147 6.4443C21.4135 8.08879 22 10.0222 22 12C21.9971 14.6513 20.9426 17.1931 19.0679 19.0679C17.1931 20.9426 14.6513 21.9971 12 22Z" fill="#DD6060"/>
<path d="M18.0021 7.19734L9.94174 16.4631C9.88755 16.5256 9.82315 16.5752 9.75223 16.6091C9.68131 16.643 9.60528 16.6604 9.52848 16.6604C9.45169 16.6604 9.37566 16.643 9.30474 16.6091C9.23382 16.5752 9.16942 16.5256 9.11523 16.4631L5.99817 12.8763C5.94397 12.8137 5.87957 12.7641 5.80865 12.7302C5.73774 12.6964 5.6617 12.6789 5.58491 12.6789C5.50812 12.6789 5.43208 12.6964 5.36117 12.7302C5.29025 12.7641 5.22585 12.8137 5.17165 12.8763C5.11725 12.9386 5.07408 13.0126 5.04462 13.0941C5.01516 13.1757 5 13.2631 5 13.3513C5 13.4396 5.01516 13.527 5.04462 13.6086C5.07408 13.6901 5.11725 13.7641 5.17165 13.8264L8.28988 17.4106C8.61882 17.788 9.0646 18 9.52936 18C9.99412 18 10.4399 17.788 10.7688 17.4106L18.8286 8.14684C18.883 8.08455 18.9261 8.01056 18.9555 7.92909C18.9849 7.84763 19 7.76029 19 7.67209C19 7.58389 18.9849 7.49655 18.9555 7.41509C18.9261 7.33362 18.883 7.25963 18.8286 7.19734C18.7744 7.13479 18.71 7.08516 18.6391 7.0513C18.5682 7.01743 18.4922 7 18.4154 7C18.3386 7 18.2626 7.01743 18.1916 7.0513C18.1207 7.08516 18.0563 7.13479 18.0021 7.19734Z" fill="#DD6060"/>
<path d="M5.5 13.5L8.7547 16.7547C9.15982 17.1598 9.82183 17.1424 10.2051 16.7166L18.5 7.5" stroke="#DD6060" stroke-width="2" stroke-linecap="round"/>
</g>
<defs>
<clipPath id="clip0_38_2131">
<rect width="24" height="24" fill="white"/>
</clipPath>
</defs>
</svg>
