<svg width="24" height="24" viewBox="0 0 24 24" fill="none" xmlns="http://www.w3.org/2000/svg">
<g clip-path="url(#clip0_158_4823)">
<path d="M23.2706 9.419C22.3678 7.94073 21.2291 6.62026 19.8996 5.51L22.6996 2.71C22.8817 2.5214 22.9825 2.2688 22.9802 2.0066C22.978 1.7444 22.8728 1.49359 22.6874 1.30818C22.502 1.12277 22.2512 1.01761 21.989 1.01533C21.7268 1.01305 21.4742 1.11384 21.2856 1.296L18.2406 4.345C16.353 3.22382 14.195 2.63947 11.9996 2.655C5.80856 2.655 2.28056 6.893 0.728563 9.419C0.249091 10.1945 -0.00488281 11.0882 -0.00488281 12C-0.00488281 12.9118 0.249091 13.8055 0.728563 14.581C1.63132 16.0593 2.77005 17.3797 4.09956 18.49L1.29956 21.29C1.20405 21.3822 1.12787 21.4926 1.07546 21.6146C1.02305 21.7366 0.995466 21.8678 0.994313 22.0006C0.993159 22.1334 1.01846 22.2651 1.06874 22.388C1.11902 22.5109 1.19328 22.6225 1.28717 22.7164C1.38106 22.8103 1.49271 22.8845 1.61561 22.9348C1.73851 22.9851 1.87018 23.0104 2.00296 23.0093C2.13574 23.0081 2.26696 22.9805 2.38897 22.9281C2.51097 22.8757 2.62132 22.7995 2.71356 22.704L5.76556 19.652C7.65083 20.773 9.80623 21.3584 11.9996 21.345C18.1906 21.345 21.7186 17.107 23.2706 14.581C23.75 13.8055 24.004 12.9118 24.004 12C24.004 11.0882 23.75 10.1945 23.2706 9.419ZM2.43256 13.534C2.1477 13.073 1.99681 12.5419 1.99681 12C1.99681 11.4581 2.1477 10.927 2.43256 10.466C3.76656 8.3 6.78156 4.655 11.9996 4.655C13.6598 4.6457 15.2968 5.04584 16.7656 5.82L14.7526 7.833C13.7925 7.1956 12.6415 6.91 11.4948 7.02465C10.3481 7.1393 9.27643 7.64714 8.46157 8.462C7.6467 9.27687 7.13886 10.3486 7.02421 11.4952C6.90956 12.6419 7.19516 13.7929 7.83256 14.753L5.52256 17.063C4.29767 16.0727 3.2524 14.879 2.43256 13.534ZM14.9996 12C14.9996 12.7957 14.6835 13.5587 14.1209 14.1213C13.5583 14.6839 12.7952 15 11.9996 15C11.5541 14.9983 11.1148 14.8957 10.7146 14.7L14.6996 10.715C14.8953 11.1152 14.9978 11.5545 14.9996 12ZM8.99956 12C8.99956 11.2044 9.31563 10.4413 9.87824 9.87868C10.4409 9.31607 11.2039 9 11.9996 9C12.4451 9.00173 12.8844 9.10429 13.2846 9.3L9.29956 13.285C9.10385 12.8848 9.00129 12.4455 8.99956 12ZM21.5666 13.534C20.2326 15.7 17.2176 19.345 11.9996 19.345C10.3393 19.3543 8.70233 18.9542 7.23356 18.18L9.24656 16.167C10.2066 16.8044 11.3577 17.09 12.5043 16.9754C13.651 16.8607 14.7227 16.3529 15.5376 15.538C16.3524 14.7231 16.8603 13.6514 16.9749 12.5048C17.0896 11.3581 16.804 10.2071 16.1666 9.247L18.4766 6.937C19.7015 7.92728 20.7467 9.12105 21.5666 10.466C21.8514 10.927 22.0023 11.4581 22.0023 12C22.0023 12.5419 21.8514 13.073 21.5666 13.534Z" fill="#D4D4D4"/>
</g>
<defs>
<clipPath id="clip0_158_4823">
<rect width="24" height="24" fill="white"/>
</clipPath>
</defs>
</svg>
